<?xml version="1.0" encoding="UTF-8" standalone="no" ?>
<!DOCTYPE svg PUBLIC "-//W3C//DTD SVG 1.1//EN" "http://www.w3.org/Graphics/SVG/1.1/DTD/svg11.dtd">
<svg xmlns="http://www.w3.org/2000/svg" xmlns:xlink="http://www.w3.org/1999/xlink" version="1.1" width="1080" height="1080" viewBox="0 0 1080 1080" xml:space="preserve">
<desc>Created with Fabric.js 5.2.4</desc>
<defs>
</defs>
<g transform="matrix(1 0 0 1 540 540)" id="ab0693f9-ff00-45ec-a036-7b320248a62d"  >
<rect style="stroke: none; stroke-width: 1; stroke-dasharray: none; stroke-linecap: butt; stroke-dashoffset: 0; stroke-linejoin: miter; stroke-miterlimit: 4; fill: rgb(255,255,255); fill-rule: nonzero; opacity: 1; visibility: hidden;" vector-effect="non-scaling-stroke"  x="-540" y="-540" rx="0" ry="0" width="1080" height="1080" />
</g>
<g transform="matrix(1 0 0 1 540 540)" id="a8dcced2-f937-4a5f-b1ad-767ac51754f4"  >
</g>
<g transform="matrix(0.35 0 0 0.35 557.7 565.31)" clip-path="url(#CLIPPATH_25)"  >
<linearGradient id="SVGID_SVGID_00000137097784117752912110000015198990810150570174__3" gradientUnits="userSpaceOnUse" gradientTransform="matrix(1 0 0 1 -2182.56 -1981.2)"  x1="2209.2913" y1="2024.1049" x2="2080.3574" y2="1817.1371">
<stop offset="0%" style="stop-color:rgb(0,138,128);stop-opacity: 1"/>
<stop offset="100%" style="stop-color:rgb(235,248,85);stop-opacity: 1"/>
</linearGradient>
<clipPath id="CLIPPATH_25" >
	<path transform="matrix(1 0 0 1 0 -15.3) translate(-2182.56, -1965.89)" id="SVGID_00000117667082930995017370000011509482564955994277_" d="M 2231.487 1929.11 L 2002.2800000000002 1984.856 C 2084.3590000000004 2061.624 2255.9190000000003 2029.762 2362.8450000000003 1982.117 C 2355.706 1955.261 2350.8660000000004 1928.066 2347.998 1900.7749999999999 L 2231.487 1929.11 z" stroke-linecap="round" />
</clipPath>
<rect style="stroke: none; stroke-width: 1; stroke-dasharray: none; stroke-linecap: butt; stroke-dashoffset: 0; stroke-linejoin: miter; stroke-miterlimit: 4; fill: url(#SVGID_SVGID_00000137097784117752912110000015198990810150570174__3); fill-rule: nonzero; opacity: 1;" vector-effect="non-scaling-stroke"  x="-180.2825" y="-80.4245" rx="0" ry="0" width="360.565" height="160.849" />
</g>
<g transform="matrix(0.35 0 0 0.35 555.69 552.76)"  >
<path style="stroke: none; stroke-width: 1; stroke-dasharray: none; stroke-linecap: butt; stroke-dashoffset: 0; stroke-linejoin: miter; stroke-miterlimit: 4; fill: rgb(0,91,80); fill-rule: evenodd; opacity: 1;" vector-effect="non-scaling-stroke"  transform=" translate(-2176.88, -1945.62)" d="M 2231.487 1929.11 L 2002.2800000000002 1984.856 C 2002.2800000000002 1984.856 2197.7200000000003 2016.929 2351.472 1927.603 C 2350.0950000000003 1918.678 2348.9410000000003 1909.732 2347.998 1900.775 L 2231.487 1929.11 z" stroke-linecap="round" />
</g>
<g transform="matrix(0.35 0 0 0.35 531.69 540.38)" clip-path="url(#CLIPPATH_26)"  >
<linearGradient id="SVGID_SVGID_00000011003458940519268450000004140140389032085925__4" gradientUnits="userSpaceOnUse" gradientTransform="matrix(1 0 0 1 -2108.84 -1910.52)"  x1="2104.9133" y1="1911.5482" x2="1730.1481" y2="2010.0863">
<stop offset="0%" style="stop-color:rgb(0,138,128);stop-opacity: 1"/>
<stop offset="100%" style="stop-color:rgb(235,248,85);stop-opacity: 1"/>
</linearGradient>
<clipPath id="CLIPPATH_26" >
	<path transform="matrix(1 0 0 1 0 -16.06) translate(-2108.84, -1894.45)" id="SVGID_00000072258210455667082990000009775839074331833266_" d="M 2153.642 1844.946 L 1865.0009999999997 1866.953 C 1960.2339999999997 1990.594 2221.8439999999996 1968.5339999999999 2352.671 1919.34 C 2347.506 1889.8619999999999 2344.6989999999996 1860.1219999999998 2343.895 1830.4399999999998 L 2153.642 1844.946 z" stroke-linecap="round" />
</clipPath>
<rect style="stroke: none; stroke-width: 1; stroke-dasharray: none; stroke-linecap: butt; stroke-dashoffset: 0; stroke-linejoin: miter; stroke-miterlimit: 4; fill: url(#SVGID_SVGID_00000011003458940519268450000004140140389032085925__4); fill-rule: nonzero; opacity: 1;" vector-effect="non-scaling-stroke"  x="-243.835" y="-80.077" rx="0" ry="0" width="487.67" height="160.154" />
</g>
<g transform="matrix(0.35 0 0 0.35 501.03 495.37)" clip-path="url(#CLIPPATH_27)"  >
<linearGradient id="SVGID_SVGID_00000108302335446927963540000004504243211292285368__5" gradientUnits="userSpaceOnUse" gradientTransform="matrix(1 0 0 1 -2021.9 -1782.91)"  x1="1949.0574" y1="1780.9467" x2="1578.6791" y2="1770.9503">
<stop offset="0%" style="stop-color:rgb(0,138,128);stop-opacity: 1"/>
<stop offset="100%" style="stop-color:rgb(235,248,85);stop-opacity: 1"/>
</linearGradient>
<clipPath id="CLIPPATH_27" >
	<path transform="matrix(1 0 0 1 0 -13.13) translate(-2021.9, -1769.78)" id="SVGID_00000082351494048452643510000011697247557002703787_" d="M 2063.365 1715.134 L 1697.2499999999998 1674.3600000000001 C 1796.5549999999998 1870.181 2192.2729999999997 1891.4660000000001 2344.402 1843.509 C 2342.88 1811.06 2343.766 1778.64 2346.552 1746.669 L 2063.365 1715.134 z" stroke-linecap="round" />
</clipPath>
<rect style="stroke: none; stroke-width: 1; stroke-dasharray: none; stroke-linecap: butt; stroke-dashoffset: 0; stroke-linejoin: miter; stroke-miterlimit: 4; fill: url(#SVGID_SVGID_00000108302335446927963540000004504243211292285368__5); fill-rule: nonzero; opacity: 1;" vector-effect="non-scaling-stroke"  x="-324.651" y="-108.553" rx="0" ry="0" width="649.302" height="217.106" />
</g>
<g transform="matrix(0.35 0 0 0.35 489.93 435.83)" clip-path="url(#CLIPPATH_28)"  >
<linearGradient id="SVGID_SVGID_00000131359849288045409920000005066044525008497795__6" gradientUnits="userSpaceOnUse" gradientTransform="matrix(1 0 0 1 -1990.43 -1614.11)"  x1="2042.3372" y1="1624.6183" x2="1484.2689" y2="1511.5962">
<stop offset="0%" style="stop-color:rgb(0,138,128);stop-opacity: 1"/>
<stop offset="100%" style="stop-color:rgb(235,248,85);stop-opacity: 1"/>
</linearGradient>
<clipPath id="CLIPPATH_28" >
	<path transform="matrix(1 0 0 1 0 -15.51) translate(-1990.43, -1598.6)" id="SVGID_00000127037707431139214490000005173311469678379689_" d="M 2027.933 1558.932 L 1627.339 1425.133 C 1695.867 1684.941 2190.772 1803.0810000000001 2345.162 1765.1100000000001 C 2346.788 1739.5290000000002 2349.6569999999997 1714.1820000000002 2353.5299999999997 1689.2910000000002 L 2346.4269999999997 1665.3090000000002 L 2027.933 1558.932 z" stroke-linecap="round" />
</clipPath>
<rect style="stroke: none; stroke-width: 1; stroke-dasharray: none; stroke-linecap: butt; stroke-dashoffset: 0; stroke-linejoin: miter; stroke-miterlimit: 4; fill: url(#SVGID_SVGID_00000131359849288045409920000005066044525008497795__6); fill-rule: nonzero; opacity: 1;" vector-effect="non-scaling-stroke"  x="-363.0955" y="-188.974" rx="0" ry="0" width="726.191" height="377.948" />
</g>
<g transform="matrix(0.35 0 0 0.35 507.45 378.13)" clip-path="url(#CLIPPATH_29)"  >
<linearGradient id="SVGID_SVGID_00000147212539425295008100000003213729623828901782__7" gradientUnits="userSpaceOnUse" gradientTransform="matrix(1 0 0 1 -2040.09 -1450.52)"  x1="2155.2581" y1="1580.74" x2="1741.7318" y2="1113.1494">
<stop offset="0%" style="stop-color:rgb(0,138,128);stop-opacity: 1"/>
<stop offset="100%" style="stop-color:rgb(235,248,85);stop-opacity: 1"/>
</linearGradient>
<clipPath id="CLIPPATH_29" >
	<path transform="matrix(1 0 0 1 0 -8.38) translate(-2040.09, -1442.14)" id="SVGID_00000062877149764663968020000003284502352552168329_" d="M 2075.977 1415.889 L 1714.1619999999998 1198.021 C 1724.7409999999998 1474.587 2209.587 1703.019 2354.1459999999997 1685.297 C 2357.473 1664.505 2361.504 1644.069 2366.026 1624.069 L 2363.64 1589.105 L 2075.977 1415.889 z" stroke-linecap="round" />
</clipPath>
<rect style="stroke: none; stroke-width: 1; stroke-dasharray: none; stroke-linecap: butt; stroke-dashoffset: 0; stroke-linejoin: miter; stroke-miterlimit: 4; fill: url(#SVGID_SVGID_00000147212539425295008100000003213729623828901782__7); fill-rule: nonzero; opacity: 1;" vector-effect="non-scaling-stroke"  x="-325.9325" y="-252.499" rx="0" ry="0" width="651.865" height="504.998" />
</g>
<g transform="matrix(0.35 0 0 0.35 531.73 337.31)" clip-path="url(#CLIPPATH_30)"  >
<linearGradient id="SVGID_SVGID_00000070837969878274730570000014267849773952103359__8" gradientUnits="userSpaceOnUse" gradientTransform="matrix(1 0 0 1 -2108.95 -1334.79)"  x1="2305.8071" y1="1572.6923" x2="1837.0951" y2="1006.2597">
<stop offset="0%" style="stop-color:rgb(0,138,128);stop-opacity: 1"/>
<stop offset="100%" style="stop-color:rgb(235,248,85);stop-opacity: 1"/>
</linearGradient>
<clipPath id="CLIPPATH_30" >
	<path transform="matrix(1 0 0 1 18.54 0) translate(-2127.48, -1334.79)" id="SVGID_00000062905092447198872400000003780877397198763653_" d="M 2160.128 1318.551 L 1865.4030000000002 1052.5539999999999 C 1825.5820000000003 1309.137 2230.266 1606.3129999999999 2367.617 1617.0209999999997 C 2374.8430000000003 1586.0659999999998 2383.2810000000004 1556.2809999999997 2392.3100000000004 1528.0979999999997 L 2160.128 1318.551 z" stroke-linecap="round" />
</clipPath>
<rect style="stroke: none; stroke-width: 1; stroke-dasharray: none; stroke-linecap: butt; stroke-dashoffset: 0; stroke-linejoin: miter; stroke-miterlimit: 4; fill: url(#SVGID_SVGID_00000070837969878274730570000014267849773952103359__8); fill-rule: nonzero; opacity: 1;" vector-effect="non-scaling-stroke"  x="-283.3635" y="-282.2335" rx="0" ry="0" width="566.727" height="564.467" />
</g>
<g transform="matrix(0.35 0 0 0.35 563.02 311.44)" clip-path="url(#CLIPPATH_31)"  >
<linearGradient id="SVGID_SVGID_00000140719466389036892080000008786085096786069668__9" gradientUnits="userSpaceOnUse" gradientTransform="matrix(1 0 0 1 -2197.66 -1261.45)"  x1="2283.7114" y1="1528.1396" x2="2112.2405" y2="996.694">
<stop offset="0%" style="stop-color:rgb(0,138,128);stop-opacity: 1"/>
<stop offset="100%" style="stop-color:rgb(235,248,85);stop-opacity: 1"/>
</linearGradient>
<clipPath id="CLIPPATH_31" >
	<path transform="matrix(1 0 0 1 31.14 0) translate(-2228.8, -1261.45)" id="SVGID_00000024700173679841987620000005652714282123884716_" d="M 2266.083 1256.474 L 2052.1040000000003 975.182 C 1977.4920000000002 1185.95 2260.4410000000003 1498.504 2386.1890000000003 1547.7179999999998 C 2396.0870000000004 1514.9319999999998 2406.9260000000004 1484.1239999999998 2417.8370000000004 1455.9589999999998 L 2266.083 1256.474 z" stroke-linecap="round" />
</clipPath>
<rect style="stroke: none; stroke-width: 1; stroke-dasharray: none; stroke-linecap: butt; stroke-dashoffset: 0; stroke-linejoin: miter; stroke-miterlimit: 4; fill: url(#SVGID_SVGID_00000140719466389036892080000008786085096786069668__9); fill-rule: nonzero; opacity: 1;" vector-effect="non-scaling-stroke"  x="-220.173" y="-286.268" rx="0" ry="0" width="440.346" height="572.536" />
</g>
<g transform="matrix(0.35 0 0 0.35 622.66 469.71)" clip-path="url(#CLIPPATH_32)"  >
<linearGradient id="SVGID_SVGID_00000083779351357425256820000013935443179552613014__10" gradientUnits="userSpaceOnUse" gradientTransform="matrix(1 0 0 1 -2366.73 -1710.18)"  x1="2326.9736" y1="2014.1097" x2="2396.5413" y2="1482.2563">
<stop offset="0%" style="stop-color:rgb(0,71,143);stop-opacity: 1"/>
<stop offset="100%" style="stop-color:rgb(71,234,223);stop-opacity: 1"/>
</linearGradient>
<clipPath id="CLIPPATH_32" >
	<path transform="matrix(1 0 0 1 2.78 0) translate(-2369.51, -1710.17)" id="SVGID_00000106859868546405854850000002289822876079726014_" d="M 2401.493 1923.77 C 2374.4049999999997 1808.497 2370.864 1658.374 2436.212 1480.114 L 2209.376 1181.9270000000001 C 2209.376 1181.9270000000001 2230.373 1371.1960000000001 2312.621 1501.708 C 2312.621 1501.708 2203.809 1731.786 2259.288 1964.098 C 2282.334 2060.599 2333.727 2157.483 2433.04 2238.422 C 2466.148 2225.801 2498.47 2208.381 2529.649 2184.87 C 2529.649 2184.871 2440.792 2090.997 2401.493 1923.77" stroke-linecap="round" />
</clipPath>
<rect style="stroke: none; stroke-width: 1; stroke-dasharray: none; stroke-linecap: butt; stroke-dashoffset: 0; stroke-linejoin: miter; stroke-miterlimit: 4; fill: url(#SVGID_SVGID_00000083779351357425256820000013935443179552613014__10); fill-rule: nonzero; opacity: 1;" vector-effect="non-scaling-stroke"  x="-162.92" y="-528.2475" rx="0" ry="0" width="325.84" height="1056.495" />
</g>
<g transform="matrix(0.35 0 0 0.35 623.64 463.17)"  >
<path style="stroke: none; stroke-width: 1; stroke-dasharray: none; stroke-linecap: butt; stroke-dashoffset: 0; stroke-linejoin: miter; stroke-miterlimit: 4; fill: rgb(94,249,246); fill-rule: evenodd; opacity: 1;" vector-effect="non-scaling-stroke"  transform=" translate(-2369.51, -1691.63)" d="M 2401.493 1923.77 C 2374.4049999999997 1808.497 2370.864 1658.374 2436.212 1480.114 L 2209.376 1181.9270000000001 C 2209.376 1181.9270000000001 2319.0110000000004 1347.2440000000001 2401.26 1477.7530000000002 C 2401.26 1477.7530000000002 2292.447 1707.834 2347.925 1940.1460000000002 C 2369.7360000000003 2031.477 2416.9480000000003 2123.1490000000003 2506.1380000000004 2201.326 C 2514.041 2196.206 2521.8820000000005 2190.727 2529.6480000000006 2184.87 C 2529.649 2184.871 2440.792 2090.997 2401.493 1923.77" stroke-linecap="round" />
</g>
<g transform="matrix(0.35 0 0 0.35 524.63 320.29)"  >
<path style="stroke: none; stroke-width: 1; stroke-dasharray: none; stroke-linecap: butt; stroke-dashoffset: 0; stroke-linejoin: miter; stroke-miterlimit: 4; fill: rgb(0,91,80); fill-rule: evenodd; opacity: 1;" vector-effect="non-scaling-stroke"  transform=" translate(-2088.81, -1286.52)" d="M 1865.403 1052.554 C 1865.403 1052.554 1996.26 1364.5900000000001 2304.551 1520.488 C 2308.455 1510.875 2311.234 1504.722 2312.225 1502.567 C 2247.1259999999997 1452.078 2170.832 1369.714 2115.565 1278.328 L 1865.403 1052.554 z" stroke-linecap="round" />
</g>
<g transform="matrix(0.35 0 0 0.35 492.33 365.12)"  >
<path style="stroke: none; stroke-width: 1; stroke-dasharray: none; stroke-linecap: butt; stroke-dashoffset: 0; stroke-linejoin: miter; stroke-miterlimit: 4; fill: rgb(0,91,80); fill-rule: evenodd; opacity: 1;" vector-effect="non-scaling-stroke"  transform=" translate(-1997.23, -1413.63)" d="M 2280.291 1589.466 C 2192.106 1548.106 2076.746 1464.4279999999999 1989.6200000000001 1363.888 L 1714.162 1198.021 C 1714.162 1198.021 1988.953 1520.474 2269.197 1629.23 C 2272.812 1615.012 2276.571 1601.709 2280.291 1589.466" stroke-linecap="round" />
</g>
<g transform="matrix(0.35 0 0 0.35 473.23 419.05)"  >
<path style="stroke: none; stroke-width: 1; stroke-dasharray: none; stroke-linecap: butt; stroke-dashoffset: 0; stroke-linejoin: miter; stroke-miterlimit: 4; fill: rgb(0,91,80); fill-rule: evenodd; opacity: 1;" vector-effect="non-scaling-stroke"  transform=" translate(-1943.09, -1566.52)" d="M 1627.339 1425.133 C 1627.339 1425.133 1934.463 1658.0900000000001 2252.973 1707.914 C 2254.754 1696.61 2256.729 1685.608 2258.843 1674.947 C 2173.4049999999997 1653.8539999999998 2060.569 1604.398 1959.7479999999998 1536.1599999999999 L 1627.339 1425.133 z" stroke-linecap="round" />
</g>
<g transform="matrix(0.35 0 0 0.35 483.22 478.86)"  >
<path style="stroke: none; stroke-width: 1; stroke-dasharray: none; stroke-linecap: butt; stroke-dashoffset: 0; stroke-linejoin: miter; stroke-miterlimit: 4; fill: rgb(0,91,80); fill-rule: evenodd; opacity: 1;" vector-effect="non-scaling-stroke"  transform=" translate(-1971.41, -1736.1)" d="M 1697.25 1674.36 C 1697.25 1674.36 1900.9279999999999 1821.51 2244.189 1794.5269999999998 C 2244.528 1786.6999999999998 2244.99 1778.947 2245.569 1771.2849999999999 C 2159.27 1766.83 2046.309 1743.3279999999997 1940.125 1701.4109999999998 L 1697.25 1674.36 z" stroke-linecap="round" />
</g>
<g transform="matrix(0.35 0 0 0.35 513.14 529.19)"  >
<path style="stroke: none; stroke-width: 1; stroke-dasharray: none; stroke-linecap: butt; stroke-dashoffset: 0; stroke-linejoin: miter; stroke-miterlimit: 4; fill: rgb(0,91,80); fill-rule: evenodd; opacity: 1;" vector-effect="non-scaling-stroke"  transform=" translate(-2056.24, -1878.8)" d="M 1865.001 1866.953 C 1865.001 1866.953 2057.77 1921.6009999999999 2247.474 1896.254 C 2246.1670000000004 1884.7009999999998 2245.21 1873.206 2244.5640000000003 1861.8049999999998 C 2180.1000000000004 1867.745 2102.9900000000002 1866.2229999999997 2026.6290000000004 1854.628 L 1865.001 1866.953 z" stroke-linecap="round" />
</g>
<g transform="matrix(0.35 0 0 0.35 503.53 808.98)" clip-path="url(#CLIPPATH_33)"  >
<linearGradient id="SVGID_SVGID_00000098911311951682980830000015981540669086565776__11" gradientUnits="userSpaceOnUse" gradientTransform="matrix(1 0 0 1 -2028.99 -2672.04)"  x1="1843.1332" y1="2888.1038" x2="2009.5023" y2="2694.7009">
<stop offset="0%" style="stop-color:rgb(255,206,75);stop-opacity: 1"/>
<stop offset="100%" style="stop-color:rgb(248,86,191);stop-opacity: 1"/>
</linearGradient>
<clipPath id="CLIPPATH_33" >
	<path transform="matrix(1 0 0 1 -7.11 0) translate(-2021.88, -2672.04)" id="SVGID_00000165229875631283923710000012043425826657501572_" d="M 1876.336 2884.281 C 2052.094 2868.422 2181.649 2552.741 2166.165 2460.3959999999997 C 2151.783 2460.6049999999996 2137.656 2460.379 2123.895 2459.8079999999995 L 1876.336 2884.281 z" stroke-linecap="round" />
</clipPath>
<rect style="stroke: none; stroke-width: 1; stroke-dasharray: none; stroke-linecap: butt; stroke-dashoffset: 0; stroke-linejoin: miter; stroke-miterlimit: 4; fill: url(#SVGID_SVGID_00000098911311951682980830000015981540669086565776__11); fill-rule: nonzero; opacity: 1;" vector-effect="non-scaling-stroke"  x="-152.6565" y="-212.236" rx="0" ry="0" width="305.313" height="424.472" />
</g>
<g transform="matrix(0.35 0 0 0.35 524.55 825.63)" clip-path="url(#CLIPPATH_34)"  >
<linearGradient id="SVGID_SVGID_00000053507591712166881180000007460362432420398497__12" gradientUnits="userSpaceOnUse" gradientTransform="matrix(1 0 0 1 -2088.6 -2719.25)"  x1="1950.2334" y1="2912.0078" x2="2102.5259" y2="2699.8374">
<stop offset="0%" style="stop-color:rgb(255,206,75);stop-opacity: 1"/>
<stop offset="100%" style="stop-color:rgb(248,86,191);stop-opacity: 1"/>
</linearGradient>
<clipPath id="CLIPPATH_34" >
	<path transform="matrix(1 0 0 1 -14.52 0) translate(-2074.07, -2719.24)" id="SVGID_00000158731766686034618320000007877094560139081628_" d="M 2039.131 2695.915 L 1970.2740000000001 2994.488 C 2158.2740000000003 2925.0989999999997 2206.917 2540.662 2162.617 2444.0009999999997 C 2150.9010000000003 2447.348 2139.2690000000002 2450.3839999999996 2127.7830000000004 2453.1429999999996 L 2073.7540000000004 2545.7789999999995 L 2039.131 2695.915 z" stroke-linecap="round" />
</clipPath>
<rect style="stroke: none; stroke-width: 1; stroke-dasharray: none; stroke-linecap: butt; stroke-dashoffset: 0; stroke-linejoin: miter; stroke-miterlimit: 4; fill: url(#SVGID_SVGID_00000053507591712166881180000007460362432420398497__12); fill-rule: nonzero; opacity: 1;" vector-effect="non-scaling-stroke"  x="-118.3215" y="-275.2435" rx="0" ry="0" width="236.643" height="550.487" />
</g>
<g transform="matrix(0.35 0 0 0.35 557.31 828.1)" clip-path="url(#CLIPPATH_35)"  >
<linearGradient id="SVGID_SVGID_00000173159440413701001240000001291062466040573829__13" gradientUnits="userSpaceOnUse" gradientTransform="matrix(1 0 0 1 -2181.48 -2726.25)"  x1="2050.5366" y1="2868.3577" x2="2188.0386" y2="2719.1235">
<stop offset="0%" style="stop-color:rgb(255,206,75);stop-opacity: 1"/>
<stop offset="100%" style="stop-color:rgb(248,86,191);stop-opacity: 1"/>
</linearGradient>
<clipPath id="CLIPPATH_35" >
	<path transform="matrix(1 0 0 1 -27.08 0) translate(-2154.39, -2726.25)" id="SVGID_00000147186226338310625400000000631675238109745553_" d="M 2095.202 2709.891 L 2102.047 3025 C 2271.952 2908.277 2223.2400000000002 2512.668 2154.628 2427.493 C 2148.712 2430.93 2142.7960000000003 2434.274 2136.8940000000002 2437.519 L 2090.998 2516.214 L 2095.202 2709.891 z" stroke-linecap="round" />
</clipPath>
<rect style="stroke: none; stroke-width: 1; stroke-dasharray: none; stroke-linecap: butt; stroke-dashoffset: 0; stroke-linejoin: miter; stroke-miterlimit: 4; fill: url(#SVGID_SVGID_00000173159440413701001240000001291062466040573829__13); fill-rule: nonzero; opacity: 1;" vector-effect="non-scaling-stroke"  x="-90.477" y="-298.7535" rx="0" ry="0" width="180.954" height="597.507" />
</g>
<g transform="matrix(0.35 0 0 0.35 576.6 816.16)" clip-path="url(#CLIPPATH_36)"  >
<linearGradient id="SVGID_SVGID_00000132801575335926850070000014439203954497199239__14" gradientUnits="userSpaceOnUse" gradientTransform="matrix(1 0 0 1 -2236.15 -2692.4)"  x1="2180.3889" y1="2825.3628" x2="2244.3462" y2="2672.864">
<stop offset="0%" style="stop-color:rgb(255,206,75);stop-opacity: 1"/>
<stop offset="100%" style="stop-color:rgb(248,86,191);stop-opacity: 1"/>
</linearGradient>
<clipPath id="CLIPPATH_36" >
	<path transform="matrix(1 0 0 1 -37.34 0) translate(-2198.81, -2692.4)" id="SVGID_00000119087922876421589730000005841546138126369716_" d="M 2159.698 2684.49 L 2232.881 2971.0969999999998 C 2363.41 2828.303 2234.8559999999998 2477.0019999999995 2154.0409999999997 2413.71 C 2151.6739999999995 2415.939 2149.2999999999997 2418.143 2146.9219999999996 2420.327 L 2108.894 2485.5290000000005 L 2159.698 2684.49 z" stroke-linecap="round" />
</clipPath>
<rect style="stroke: none; stroke-width: 1; stroke-dasharray: none; stroke-linecap: butt; stroke-dashoffset: 0; stroke-linejoin: miter; stroke-miterlimit: 4; fill: url(#SVGID_SVGID_00000132801575335926850070000014439203954497199239__14); fill-rule: nonzero; opacity: 1;" vector-effect="non-scaling-stroke"  x="-127.2575" y="-278.6935" rx="0" ry="0" width="254.515" height="557.387" />
</g>
<g transform="matrix(0.35 0 0 0.35 581.52 792.98)" clip-path="url(#CLIPPATH_37)"  >
<linearGradient id="SVGID_SVGID_00000109718491760372383340000005307381953341512617__15" gradientUnits="userSpaceOnUse" gradientTransform="matrix(1 0 0 1 -2250.11 -2626.68)"  x1="2267.0647" y1="2741.6296" x2="2240.8486" y2="2563.9385">
<stop offset="0%" style="stop-color:rgb(255,206,75);stop-opacity: 1"/>
<stop offset="100%" style="stop-color:rgb(248,86,191);stop-opacity: 1"/>
</linearGradient>
<clipPath id="CLIPPATH_37" >
	<path transform="matrix(1 0 0 1 -30.06 0) translate(-2220.04, -2626.68)" id="SVGID_00000008120509546434714200000001868128201878151325_" d="M 2190.867 2626.303 L 2303.6150000000002 2849.804 C 2385.443 2707.9990000000003 2215.135 2441.126 2136.8100000000004 2403.561 L 2135.4320000000002 2405.5730000000003 C 2142.447 2414.0480000000002 2146.922 2420.3260000000005 2146.922 2420.3260000000005 L 2114.7690000000002 2475.4550000000004 L 2190.867 2626.303 z" stroke-linecap="round" />
</clipPath>
<rect style="stroke: none; stroke-width: 1; stroke-dasharray: none; stroke-linecap: butt; stroke-dashoffset: 0; stroke-linejoin: miter; stroke-miterlimit: 4; fill: url(#SVGID_SVGID_00000109718491760372383340000005307381953341512617__15); fill-rule: nonzero; opacity: 1;" vector-effect="non-scaling-stroke"  x="-135.3365" y="-223.1215" rx="0" ry="0" width="270.673" height="446.243" />
</g>
<g transform="matrix(0.35 0 0 0.35 433.73 607.75)" clip-path="url(#CLIPPATH_38)"  >
<linearGradient id="SVGID_SVGID_00000101825676893928003190000001074214034819963776__16" gradientUnits="userSpaceOnUse" gradientTransform="matrix(1 0 0 1 -1831.1 -2101.51)"  x1="1761.3848" y1="2159.7764" x2="1386.3137" y2="2473.2363">
<stop offset="0%" style="stop-color:rgb(0,138,128);stop-opacity: 1"/>
<stop offset="100%" style="stop-color:rgb(235,248,85);stop-opacity: 1"/>
</linearGradient>
<clipPath id="CLIPPATH_38" >
	<path transform="matrix(1 0 0 1 0 -42.91) translate(-1831.1, -2058.6)" id="SVGID_00000135655854637810332860000004259241327218362027_" d="M 1834.941 2016.394 L 1437.249 2295.632 C 1706.387 2402.627 2116.348 2078.277 2224.949 1898.055 C 2195.127 1867.2920000000001 2167.705 1834.4540000000002 2142.551 1800.401 L 1834.941 2016.394 z" stroke-linecap="round" />
</clipPath>
<rect style="stroke: none; stroke-width: 1; stroke-dasharray: none; stroke-linecap: butt; stroke-dashoffset: 0; stroke-linejoin: miter; stroke-miterlimit: 4; fill: url(#SVGID_SVGID_00000101825676893928003190000001074214034819963776__16); fill-rule: nonzero; opacity: 1;" vector-effect="non-scaling-stroke"  x="-393.85" y="-301.113" rx="0" ry="0" width="787.7" height="602.226" />
</g>
<g transform="matrix(0.35 0 0 0.35 340.7 519.69)" clip-path="url(#CLIPPATH_39)"  >
<linearGradient id="SVGID_SVGID_00000078036013275918303260000007012665352213743275__17" gradientUnits="userSpaceOnUse" gradientTransform="matrix(1 0 0 1 -1567.34 -1851.85)"  x1="1798.8997" y1="1880.6129" x2="981.8425" y2="1779.1182">
<stop offset="0%" style="stop-color:rgb(0,138,128);stop-opacity: 1"/>
<stop offset="100%" style="stop-color:rgb(235,248,85);stop-opacity: 1"/>
</linearGradient>
<clipPath id="CLIPPATH_39" >
	<path transform="matrix(1 0 0 1 0 -67.14) translate(-1567.34, -1784.71)" id="SVGID_00000153704266738337989600000001093219172626121917_" d="M 1586.22 1709.419 L 1038.2 1809.748 C 1290.064 2074.049 1968.988 1876.778 2096.489 1733.073 C 2081.636 1709.6090000000002 2067.786 1685.8780000000002 2054.801 1662.145 L 2021.926 1629.651 L 1586.22 1709.419 z" stroke-linecap="round" />
</clipPath>
<rect style="stroke: none; stroke-width: 1; stroke-dasharray: none; stroke-linecap: butt; stroke-dashoffset: 0; stroke-linejoin: miter; stroke-miterlimit: 4; fill: url(#SVGID_SVGID_00000078036013275918303260000007012665352213743275__17); fill-rule: nonzero; opacity: 1;" vector-effect="non-scaling-stroke"  x="-529.144" y="-222.199" rx="0" ry="0" width="1058.288" height="444.398" />
</g>
<g transform="matrix(0.35 0 0 0.35 336.53 458.41)" clip-path="url(#CLIPPATH_40)"  >
<linearGradient id="SVGID_SVGID_00000122706182955062077330000013677445975703775934__18" gradientUnits="userSpaceOnUse" gradientTransform="matrix(1 0 0 1 -1555.52 -1678.13)"  x1="1938.634" y1="1738.5427" x2="980.6057" y2="1587.4725">
<stop offset="0%" style="stop-color:rgb(0,138,128);stop-opacity: 1"/>
<stop offset="100%" style="stop-color:rgb(235,248,85);stop-opacity: 1"/>
</linearGradient>
<clipPath id="CLIPPATH_40" >
	<path transform="matrix(1 0 0 1 0 -39.25) translate(-1555.52, -1638.88)" id="SVGID_00000081632930428936553530000000547446830368590211_" d="M 1584.488 1539.697 L 1060.816 1533.8649999999998 C 1245.391 1822.3969999999997 1905.0300000000002 1763.0839999999998 2050.223 1653.7929999999997 C 2030.35 1616.8659999999998 2012.695 1580.0439999999996 1997.028 1544.2899999999997 L 1584.488 1539.697 z" stroke-linecap="round" />
</clipPath>
<rect style="stroke: none; stroke-width: 1; stroke-dasharray: none; stroke-linecap: butt; stroke-dashoffset: 0; stroke-linejoin: miter; stroke-miterlimit: 4; fill: url(#SVGID_SVGID_00000122706182955062077330000013677445975703775934__18); fill-rule: nonzero; opacity: 1;" vector-effect="non-scaling-stroke"  x="-494.7035" y="-144.266" rx="0" ry="0" width="989.407" height="288.532" />
</g>
<g transform="matrix(0.35 0 0 0.35 673.84 649.57)" clip-path="url(#CLIPPATH_41)"  >
<linearGradient id="SVGID_SVGID_00000141414443548983049390000003857330542117876627__19" gradientUnits="userSpaceOnUse" gradientTransform="matrix(1 0 0 1 -2511.84 -2220.08)"  x1="2499.3833" y1="2560.5239" x2="2528.4543" y2="1765.7048">
<stop offset="0%" style="stop-color:rgb(0,55,128);stop-opacity: 1"/>
<stop offset="100%" style="stop-color:rgb(216,32,210);stop-opacity: 1"/>
</linearGradient>
<clipPath id="CLIPPATH_41" >
	<path transform="matrix(1 0 0 1 3.04 13.13) translate(-2514.88, -2233.21)" id="SVGID_00000094588149930961675590000013342346086437231744_" d="M 2706.127 2073.986 C 2706.127 2073.986 2859.592 2057.834 2959.746 2166.064 C 2959.746 2166.064 2945.205 2072.372 2906.436 2044.908 C 2973.2690000000002 1870.905 2770.51 1729.712 2586.231 1760.109 C 2291.7810000000004 1808.686 2050.3990000000003 2467.657 2071.2630000000004 2710.453 C 2269.151 2527.339 2636.142 2416.406 2706.127 2073.986" stroke-linecap="round" />
</clipPath>
<rect style="stroke: none; stroke-width: 1; stroke-dasharray: none; stroke-linecap: butt; stroke-dashoffset: 0; stroke-linejoin: miter; stroke-miterlimit: 4; fill: url(#SVGID_SVGID_00000141414443548983049390000003857330542117876627__19); fill-rule: nonzero; opacity: 1;" vector-effect="non-scaling-stroke"  x="-461.4355" y="-490.371" rx="0" ry="0" width="922.871" height="980.742" />
</g>
<g transform="matrix(0.35 0 0 0.35 613.76 663.27)"  >
<path style="stroke: none; stroke-width: 1; stroke-dasharray: none; stroke-linecap: butt; stroke-dashoffset: 0; stroke-linejoin: miter; stroke-miterlimit: 4; fill: rgb(0,55,128); fill-rule: evenodd; opacity: 1;" vector-effect="non-scaling-stroke"  transform=" translate(-2341.52, -2258.92)" d="M 2112.205 2426.218 C 2198.37 2245.0899999999997 2440.129 2213.104 2570.835 2209.575 C 2468.168 2201.2819999999997 2379.393 2170.922 2303.096 2127.7599999999998 C 2284.299 2117.1259999999997 2266.259 2105.7149999999997 2248.953 2093.667 C 2247.975 2092.987 2247.0009999999997 2092.305 2246.027 2091.62 C 2240.574 2101.81 2235.221 2112.1079999999997 2229.9700000000003 2122.5 C 2203.7070000000003 2174.496 2180.0530000000003 2228.771 2159.496 2282.976 C 2141.16 2331.331 2125.283 2379.634 2112.205 2426.218" stroke-linecap="round" />
</g>
<g transform="matrix(0.35 0 0 0.35 715.97 516.14)"  >
<path style="stroke: none; stroke-width: 1; stroke-dasharray: none; stroke-linecap: butt; stroke-dashoffset: 0; stroke-linejoin: miter; stroke-miterlimit: 4; fill: rgb(252,226,166); fill-rule: evenodd; opacity: 1;" vector-effect="non-scaling-stroke"  transform=" translate(-2631.29, -1841.79)" d="M 2351.472 1927.608 C 2351.472 1927.608 2637.5310000000004 1747.499 2911.116 1924.542 C 2874.657 1811.831 2725.192 1737.186 2586.232 1760.109 C 2502.007 1774.006 2422.12 1837.846 2351.472 1927.608" stroke-linecap="round" />
</g>
<g transform="matrix(0.35 0 0 0.35 559.29 623.49)" clip-path="url(#CLIPPATH_42)"  >
<linearGradient id="SVGID_SVGID_00000022543697021069458200000002539097042619462813__20" gradientUnits="userSpaceOnUse" gradientTransform="matrix(1 0 0 1 -2187.06 -2146.16)"  x1="2257.2463" y1="2167.1379" x2="1949.0905" y2="2075.0271">
<stop offset="0%" style="stop-color:rgb(0,138,128);stop-opacity: 1"/>
<stop offset="100%" style="stop-color:rgb(235,248,85);stop-opacity: 1"/>
</linearGradient>
<clipPath id="CLIPPATH_42" >
	<path transform="matrix(1 0 0 1 0 -2.11) translate(-2187.06, -2144.05)" id="SVGID_00000115485121127239884730000014983317546797430705_" d="M 2187.99 2081.28 L 2009.9529999999997 2336.476 C 2158.142 2340.762 2300.013 2159.504 2364.1769999999997 2019.046 C 2333.6739999999995 1998.717 2305.153 1976.045 2278.4939999999997 1951.558 L 2187.99 2081.28 z" stroke-linecap="round" />
</clipPath>
<rect style="stroke: none; stroke-width: 1; stroke-dasharray: none; stroke-linecap: butt; stroke-dashoffset: 0; stroke-linejoin: miter; stroke-miterlimit: 4; fill: url(#SVGID_SVGID_00000022543697021069458200000002539097042619462813__20); fill-rule: nonzero; opacity: 1;" vector-effect="non-scaling-stroke"  x="-177.1115" y="-194.602" rx="0" ry="0" width="354.223" height="389.204" />
</g>
<g transform="matrix(0.35 0 0 0.35 548.91 622.74)"  >
<path style="stroke: none; stroke-width: 1; stroke-dasharray: none; stroke-linecap: butt; stroke-dashoffset: 0; stroke-linejoin: miter; stroke-miterlimit: 4; fill: rgb(0,91,80); fill-rule: evenodd; opacity: 1;" vector-effect="non-scaling-stroke"  transform=" translate(-2157.65, -2144.02)" d="M 2187.99 2081.28 L 2009.9529999999997 2336.476 C 2009.9529999999997 2336.476 2231.247 2197.609 2305.3459999999995 1975.0620000000001 C 2296.1929999999998 1967.4340000000002 2287.2439999999997 1959.592 2278.4939999999997 1951.5580000000002 L 2187.99 2081.28 z" stroke-linecap="round" />
</g>
<g transform="matrix(0.35 0 0 0.35 505.75 618.57)" clip-path="url(#CLIPPATH_43)"  >
<linearGradient id="SVGID_SVGID_00000155113360022244027570000014952301219252509347__21" gradientUnits="userSpaceOnUse" gradientTransform="matrix(1 0 0 1 -2035.29 -2132.21)"  x1="2019.5919" y1="2155.6245" x2="1734.8975" y2="2580.1665">
<stop offset="0%" style="stop-color:rgb(0,138,128);stop-opacity: 1"/>
<stop offset="100%" style="stop-color:rgb(235,248,85);stop-opacity: 1"/>
</linearGradient>
<clipPath id="CLIPPATH_43" >
	<path transform="matrix(1 0 0 1 0 -17.53) translate(-2035.29, -2114.68)" id="SVGID_00000075852791514918765800000008116321963303275907_" d="M 2037.536 2065.984 L 1771.265 2339.691 C 1973.3790000000001 2378.8489999999997 2212.862 2128.6839999999997 2299.32 1965.8369999999998 C 2268.4790000000003 1941.1869999999997 2239.7470000000003 1914.2269999999999 2213.0440000000003 1885.5729999999999 L 2037.536 2065.984 z" stroke-linecap="round" />
</clipPath>
<rect style="stroke: none; stroke-width: 1; stroke-dasharray: none; stroke-linecap: butt; stroke-dashoffset: 0; stroke-linejoin: miter; stroke-miterlimit: 4; fill: url(#SVGID_SVGID_00000155113360022244027570000014952301219252509347__21); fill-rule: nonzero; opacity: 1;" vector-effect="non-scaling-stroke"  x="-264.0275" y="-246.638" rx="0" ry="0" width="528.055" height="493.276" />
</g>
<g transform="matrix(0.35 0 0 0.35 371.24 576.76)" clip-path="url(#CLIPPATH_44)"  >
<linearGradient id="SVGID_SVGID_00000113316439038703644440000015935332398520127899__22" gradientUnits="userSpaceOnUse" gradientTransform="matrix(1 0 0 1 -1653.92 -2013.67)"  x1="1744.4745" y1="1961.4347" x2="1093.8895" y2="2336.7112">
<stop offset="0%" style="stop-color:rgb(0,138,128);stop-opacity: 1"/>
<stop offset="100%" style="stop-color:rgb(235,248,85);stop-opacity: 1"/>
</linearGradient>
<clipPath id="CLIPPATH_44" >
	<path transform="matrix(1 0 0 1 0 -67.21) translate(-1653.92, -1946.46)" id="SVGID_00000092456260828496008050000006125903965094306463_" d="M 1663.558 1892.83 L 1150.569 2110.1549999999997 C 1445.116 2307.299 2037.717 1992.1669999999997 2157.2709999999997 1819.8529999999996 C 2136.5539999999996 1793.1289999999997 2117.267 1765.5609999999997 2099.3709999999996 1737.5619999999997 L 2071.4149999999995 1720.0399999999997 L 1663.558 1892.83 z" stroke-linecap="round" />
</clipPath>
<rect style="stroke: none; stroke-width: 1; stroke-dasharray: none; stroke-linecap: butt; stroke-dashoffset: 0; stroke-linejoin: miter; stroke-miterlimit: 4; fill: url(#SVGID_SVGID_00000113316439038703644440000015935332398520127899__22); fill-rule: nonzero; opacity: 1;" vector-effect="non-scaling-stroke"  x="-503.351" y="-293.6295" rx="0" ry="0" width="1006.702" height="587.259" />
</g>
<g transform="matrix(0.35 0 0 0.35 349.76 382.27)" clip-path="url(#CLIPPATH_45)"  >
<linearGradient id="SVGID_SVGID_00000177450197121881949370000013749842960996336547__23" gradientUnits="userSpaceOnUse" gradientTransform="matrix(1 0 0 1 -1593.02 -1462.25)"  x1="1889.9851" y1="1638.5171" x2="1256.5363" y2="1262.5267">
<stop offset="0%" style="stop-color:rgb(0,138,128);stop-opacity: 1"/>
<stop offset="100%" style="stop-color:rgb(235,248,85);stop-opacity: 1"/>
</linearGradient>
<clipPath id="CLIPPATH_45" >
	<path transform="matrix(1 0 0 1 0 -19.78) translate(-1593.02, -1442.46)" id="SVGID_00000011019809995428756600000017221110836432070319_" d="M 1635.094 1385.815 L 1177.9360000000001 1294.3790000000001 C 1288.1090000000002 1567.9660000000001 1840.7730000000001 1630.1180000000002 2008.1000000000001 1569.0320000000002 C 1989.2700000000002 1527.9660000000001 1973.102 1488.0330000000001 1959.304 1450.6560000000002 L 1635.094 1385.815 z" stroke-linecap="round" />
</clipPath>
<rect style="stroke: none; stroke-width: 1; stroke-dasharray: none; stroke-linecap: butt; stroke-dashoffset: 0; stroke-linejoin: miter; stroke-miterlimit: 4; fill: url(#SVGID_SVGID_00000177450197121881949370000013749842960996336547__23); fill-rule: nonzero; opacity: 1;" vector-effect="non-scaling-stroke"  x="-415.082" y="-167.8695" rx="0" ry="0" width="830.164" height="335.739" />
</g>
<g transform="matrix(0.35 0 0 0.35 532.12 497.78)" clip-path="url(#CLIPPATH_46)"  >
<linearGradient id="SVGID_SVGID_00000021095190494587889900000009273778048915633846__24" gradientUnits="userSpaceOnUse" gradientTransform="matrix(1 0 0 1 -2110.03 -1789.75)"  x1="2322.4705" y1="2105.0032" x2="1927.0999" y2="1518.2723">
<stop offset="0%" style="stop-color:rgb(0,71,143);stop-opacity: 1"/>
<stop offset="100%" style="stop-color:rgb(71,234,223);stop-opacity: 1"/>
</linearGradient>
<clipPath id="CLIPPATH_46" >
	<path transform="matrix(1 0 0 1 0 -3.03) translate(-2110.04, -1786.72)" id="SVGID_00000007417788564513817550000007392421452564844696_" d="M 2351.472 1927.608 C 2224.067 1837.241 2089.527 1691.8519999999999 1998.5640000000003 1458.5079999999998 L 1513.9420000000002 1361.5839999999998 C 1513.9420000000002 1361.5839999999998 1699.9160000000002 1530.4519999999998 1895.1810000000003 1587.7399999999998 C 1895.1810000000003 1587.7399999999998 1988.3850000000002 1910.2749999999999 2246.0290000000005 2091.62 C 2353.0500000000006 2166.946 2488.4470000000006 2217.911 2657.3200000000006 2211.279 C 2679.0470000000005 2169.894 2695.8150000000005 2124.453 2706.1280000000006 2073.986 C 2706.127 2073.986 2536.303 2058.7 2351.472 1927.608" stroke-linecap="round" />
</clipPath>
<rect style="stroke: none; stroke-width: 1; stroke-dasharray: none; stroke-linecap: butt; stroke-dashoffset: 0; stroke-linejoin: miter; stroke-miterlimit: 4; fill: url(#SVGID_SVGID_00000021095190494587889900000009273778048915633846__24); fill-rule: nonzero; opacity: 1;" vector-effect="non-scaling-stroke"  x="-596.093" y="-428.163" rx="0" ry="0" width="1192.186" height="856.326" />
</g>
<g transform="matrix(0.35 0 0 0.35 532.12 478.89)"  >
<path style="stroke: none; stroke-width: 1; stroke-dasharray: none; stroke-linecap: butt; stroke-dashoffset: 0; stroke-linejoin: miter; stroke-miterlimit: 4; fill: rgb(94,249,246); fill-rule: evenodd; opacity: 1;" vector-effect="non-scaling-stroke"  transform=" translate(-2110.03, -1736.19)" d="M 2351.472 1927.608 C 2224.067 1837.241 2089.527 1691.8519999999999 1998.5640000000003 1458.5079999999998 L 1513.9420000000002 1361.5839999999998 C 1513.9420000000002 1361.5839999999998 1766.6740000000002 1429.3939999999998 1961.938 1486.6839999999997 C 1961.938 1486.6839999999997 2055.145 1809.2189999999998 2312.789 1990.5589999999997 C 2414.077 2061.8529999999996 2540.789 2111.314 2697.2380000000003 2110.7859999999996 C 2700.5840000000003 2098.8199999999997 2703.5570000000002 2086.5599999999995 2706.1270000000004 2073.9859999999994 C 2706.127 2073.986 2536.303 2058.7 2351.472 1927.608" stroke-linecap="round" />
</g>
<g transform="matrix(0.35 0 0 0.35 310.67 427.95)"  >
<path style="stroke: none; stroke-width: 1; stroke-dasharray: none; stroke-linecap: butt; stroke-dashoffset: 0; stroke-linejoin: miter; stroke-miterlimit: 4; fill: rgb(0,91,80); fill-rule: evenodd; opacity: 1;" vector-effect="non-scaling-stroke"  transform=" translate(-1482.2, -1591.78)" d="M 1060.816 1533.864 C 1060.816 1533.864 1462.6 1728.263 1903.585 1613.358 C 1899.06 1600.446 1896.434 1591.9279999999999 1895.535 1588.9379999999999 C 1787.082 1595.8259999999998 1639.7330000000002 1580.956 1505.305 1538.8149999999998 L 1060.816 1533.864 z" stroke-linecap="round" />
</g>
<g transform="matrix(0.35 0 0 0.35 317.25 489.97)"  >
<path style="stroke: none; stroke-width: 1; stroke-dasharray: none; stroke-linecap: butt; stroke-dashoffset: 0; stroke-linejoin: miter; stroke-miterlimit: 4; fill: rgb(0,91,80); fill-rule: evenodd; opacity: 1;" vector-effect="non-scaling-stroke"  transform=" translate(-1500.87, -1767.6)" d="M 1939.801 1702.757 C 1816.485 1738.8200000000002 1629.349 1756.7530000000002 1455.418 1733.363 L 1038.1999999999998 1809.747 C 1038.1999999999998 1809.747 1591.4329999999998 1888.813 1963.5339999999997 1751.767 C 1954.703 1734.551 1946.806 1718.115 1939.801 1702.757" stroke-linecap="round" />
</g>
<g transform="matrix(0.35 0 0 0.35 346.35 557.16)"  >
<path style="stroke: none; stroke-width: 1; stroke-dasharray: none; stroke-linecap: butt; stroke-dashoffset: 0; stroke-linejoin: miter; stroke-miterlimit: 4; fill: rgb(0,91,80); fill-rule: evenodd; opacity: 1;" vector-effect="non-scaling-stroke"  transform=" translate(-1583.37, -1958.09)" d="M 1150.568 2110.156 C 1150.568 2110.156 1657.663 2072.485 2016.172 1843.754 C 2008.065 1831.021 2000.414 1818.415 1993.2 1806.0249999999999 C 1890.29 1859.7369999999999 1735.5210000000002 1909.31 1576.2450000000001 1929.8229999999999 L 1150.568 2110.156 z" stroke-linecap="round" />
</g>
<g transform="matrix(0.35 0 0 0.35 408.71 608.72)"  >
<path style="stroke: none; stroke-width: 1; stroke-dasharray: none; stroke-linecap: butt; stroke-dashoffset: 0; stroke-linejoin: miter; stroke-miterlimit: 4; fill: rgb(0,91,80); fill-rule: evenodd; opacity: 1;" vector-effect="non-scaling-stroke"  transform=" translate(-1760.17, -2104.26)" d="M 1437.249 2295.632 C 1437.249 2295.632 1767.137 2263.389 2083.082 1937.082 C 2076.582 1929.046 2070.275 1920.9740000000002 2064.1569999999997 1912.891 C 1974.9179999999997 1983.814 1842.6789999999996 2059.167 1701.0729999999996 2110.388 L 1437.249 2295.632 z" stroke-linecap="round" />
</g>
<g transform="matrix(0.35 0 0 0.35 483.85 632.43)"  >
<path style="stroke: none; stroke-width: 1; stroke-dasharray: none; stroke-linecap: butt; stroke-dashoffset: 0; stroke-linejoin: miter; stroke-miterlimit: 4; fill: rgb(0,91,80); fill-rule: evenodd; opacity: 1;" vector-effect="non-scaling-stroke"  transform=" translate(-1973.2, -2171.49)" d="M 1771.265 2339.691 C 1771.265 2339.691 2009.6200000000001 2225.4809999999998 2175.125 2034.8279999999997 C 2163.744 2024.5399999999997 2152.765 2014.0109999999997 2142.178 2003.2949999999998 C 2083.605 2065.439 2006.012 2131.239 1920.366 2186.4249999999997 L 1771.265 2339.691 z" stroke-linecap="round" />
</g>
</svg>